<svg width="22px" height="22px" viewBox="0 0 22 22" version="1.1" xmlns="http://www.w3.org/2000/svg" xmlns:xlink="http://www.w3.org/1999/xlink">
  <path stroke-width="1" d="M9.00636108,15.880498 C5.15838658,15.880498 2.03927277,12.7637887 2.03927277,8.92006051 C2.03927277,5.07505236 5.15838658,1.95834303 9.00636108,1.95834303 C12.8543356,1.95834303 15.9721684,5.07505236 15.9721684,8.92006051 C15.9721684,12.7637887 12.8543356,15.880498 9.00636108,15.880498 M21.7185112,20.3616477 L15.9388637,14.5864557 C17.1852283,13.0479404 17.9333033,11.0921573 17.9333033,8.95973935 C17.9333033,4.0114033 13.9188052,0 8.96665163,0 C4.01449803,0 0,4.0114033 0,8.95973935 C0,13.9080754 4.01449803,17.9194787 8.96665163,17.9194787 C11.0917481,17.9194787 13.0413543,17.1771003 14.5784946,15.9419362 L20.359423,21.7196882 C20.7347414,22.0934373 21.3431928,22.0934373 21.7185112,21.7196882 C22.0938296,21.3446591 22.0938296,20.7353968 21.7185112,20.3616477"></path>
</svg>