<svg data-name="Layer 1" viewBox="0 0 125 125" xmlns="http://www.w3.org/2000/svg" aria-labelledby="nhm-logo-title" role="img" class="bc-c-logo--nhm"><title id="nhm-logo-title">Natural History Museum</title><path d="M0 .03h125V125H0z"></path><path class="cls-1" d="M0 0h125v124.97H0z"></path><path class="cls-1" d="M0 0h125v124.97H0z"></path><path class="cls-1" d="M0 0h125v124.97H0z"></path><path class="cls-1" d="M0 0h125v124.97H0z"></path><path class="cls-1" d="M0 0h125v124.97H0z"></path><path d="M46.72 32.95H43.9v-2.06h8.2v2.06h-2.84v8.34h-2.54v-8.34zm10.68 4.26v-6.32h2.54v6.14c0 1.64.54 2.4 2.09 2.4s2-.86 2-2.3v-6.24h2.37v6.07c0 2.94-1.48 4.52-4.36 4.52-3.06 0-4.58-1.46-4.58-4.27m21.94 1.14a5.08 5.08 0 0 0-1.28-1.55 2.77 2.77 0 0 0 2.28-2.85c0-2-1.43-3.06-4-3.06h-3.68v10.4h2.54v-4.11h.14c.42 0 .59.1 1.27 1.14l1.84 3h2.75zm-3-2.92h-1.14V32.8h1c1.14 0 1.64.45 1.64 1.32s-.5 1.31-1.5 1.31zm15.74-4.54h-2.42l-4 10.4h2.54l.61-1.75h4l.61 1.75h2.75zm-2.57 6.65l.75-2.14c.3-.86.47-1.62.54-1.81.06.17.21.92.52 1.81l.77 2.14zm12.44-6.65h2.55v8.39h4.6v2.01h-7.15v-10.4zM15.84 49.65h2.53v3.98h4.26v-3.98h2.51v10.4h-2.51v-4.36h-4.26v4.36h-2.53v-10.4zm17.73 0h2.55v10.4h-2.55zm9.88 9.57l1-1.75a3.78 3.78 0 0 0 2.18.75c1 0 1.5-.44 1.5-1 0-.81-1.07-1-2.29-1.61a3.26 3.26 0 0 1-2.18-3.16c0-1.81 1.52-3 3.47-3a5 5 0 0 1 3.14.89l-1 1.75a4.16 4.16 0 0 0-2-.63c-.79 0-1.25.31-1.25.94s.82.94 1.93 1.44c1.37.61 2.58 1.31 2.58 3.2s-1.44 3.19-3.85 3.19a5.35 5.35 0 0 1-3.3-1m16.1-7.52h-2.84v-2.06h8.21v2.06H62v8.34h-2.52v-8.34zm10.63 3.15a5.2 5.2 0 0 1 5.46-5.4 5.39 5.39 0 1 1 .06 10.78 5.23 5.23 0 0 1-5.52-5.38m8.24 0c0-1.81-.77-3.39-2.72-3.39s-2.84 1.52-2.84 3.33.84 3.44 2.78 3.44 2.83-1.58 2.83-3.38m8.55-5.21h3.69c2.53 0 4 1.06 4 3.06a2.76 2.76 0 0 1-2.27 2.82 5 5 0 0 1 1.27 1.55l1.86 2.94h-2.78l-1.85-3c-.67-1.05-.84-1.14-1.27-1.14h-.12v4.11h-2.53zm3.62 4.54c1 0 1.55-.48 1.55-1.33s-.5-1.33-1.64-1.33h-1v2.66zm13.39 1.94l-3.44-6.48h2.8l2.02 4.13h.01l2-4.13h2.46l-3.32 6.48v3.92h-2.53v-3.92zM15.84 30.89h2.56l3.38 4.84c.67 1 1.06 1.7 1.14 1.83 0-.11-.06-.89-.06-1.71v-5h2.28v10.4h-2.3L19.14 36c-.64-.89-.95-1.47-1.06-1.62 0 .11.06.75.06 1.45v5.42h-2.3zm18.3 0h2.42l4.1 10.4H37.9l-.6-1.75h-4l-.61 1.75h-2.52zm2.45 6.65l-.76-2.14a17.68 17.68 0 0 1-.52-1.81c-.07.19-.23 1-.53 1.81l-.75 2.14zM16.63 68.4h2.46l1.95 6.2c.22.72.42 1.56.49 1.75.07-.19.28-1 .51-1.75l2-6.2h2.45l1.47 10.4H25.4l-.57-4.91c-.1-.77-.18-1.37-.18-1.53-.05.17-.2.8-.42 1.5l-1.58 4.94h-2.49l-1.53-4.94c-.18-.64-.36-1.34-.4-1.5 0 .17-.05.86-.13 1.54l-.64 4.9h-2.27zm18.39 6.33V68.4h2.53v6.14c0 1.64.55 2.41 2.1 2.41s2-.86 2-2.3V68.4h2.32v6.08c0 2.94-1.49 4.51-4.36 4.51-3.06 0-4.58-1.45-4.58-4.26m16.23 3.25l1-1.75a3.93 3.93 0 0 0 2.19.75c1 0 1.5-.44 1.5-1 0-.81-1.08-1-2.3-1.61a3.25 3.25 0 0 1-2.17-3.16c0-1.81 1.52-3 3.47-3a5 5 0 0 1 3.15.9l-1 1.74a4.17 4.17 0 0 0-2-.62c-.79 0-1.25.31-1.25.94s.82.93 1.93 1.43c1.42.61 2.62 1.31 2.62 3.2s-1.45 3.18-3.85 3.18a5.36 5.36 0 0 1-3.3-1m14.94-9.58h6.22v2.06h-3.72v2.02h3.28v1.94h-3.28v2.33h3.83v2.06h-6.33V68.4zm14.21 6.33V68.4h2.53v6.14c0 1.64.55 2.41 2.1 2.41s2-.86 2-2.3V68.4h2.37v6.08c0 2.94-1.48 4.51-4.36 4.51-3.06 0-4.58-1.45-4.58-4.26m17.37-6.33h2.46l2 6.2c.22.72.42 1.56.48 1.75.06-.19.28-1 .5-1.75l2-6.2h2.46l1.43 10.4h-2.58l-.57-4.91c-.1-.77-.18-1.37-.18-1.53-.05.17-.2.8-.42 1.5l-1.56 4.94h-2.45l-1.53-4.94c-.19-.64-.36-1.34-.4-1.5 0 .17 0 .86-.12 1.54l-.69 4.9H96.4zM22.66 87.68a2.77 2.77 0 1 0 0 5.54 2.77 2.77 0 1 0 0-5.54zm0 4.51c-1 0-1.43-.82-1.43-1.77s.44-1.7 1.47-1.7 1.39.81 1.39 1.74-.41 1.73-1.43 1.73zm3.8.51l.53-.9a2 2 0 0 0 1.13.39c.5 0 .77-.22.77-.53s-.56-.51-1.18-.83a1.66 1.66 0 0 1-1.12-1.62 1.6 1.6 0 0 1 1.81-1.52 2.61 2.61 0 0 1 1.62.45l-.51.9a2.15 2.15 0 0 0-1-.32c-.41 0-.64.16-.64.48s.42.49 1 .74 1.32.68 1.32 1.65-.74 1.63-2 1.63a2.69 2.69 0 0 1-1.7-.52m10.35-4.97H35.6l-2 5.35h1.31l.31-.91h2l.32.91h1.41zm-1.31 3.42l.38-1.1c.16-.44.24-.84.28-.93 0 .09.11.47.27.93l.39 1.1zm4.58-3.42h1.29l1.73 2.48c.35.5.55.88.59.94a8.43 8.43 0 0 1 0-.87v-2.55h1.17v5.35h-1.18l-1.9-2.71c-.32-.45-.49-.75-.54-.83v3.54h-1.16zm6.29 2.66a2.77 2.77 0 0 1 3-2.76 2.92 2.92 0 0 1 1.79.48l-.56 1a2.13 2.13 0 0 0-1.23-.41 1.49 1.49 0 0 0-1.59 1.66c0 1 .45 1.76 1.49 1.76a1.72 1.72 0 0 0 .82-.16v-.93h-.93v-1h2.21v2.63a3.79 3.79 0 0 1-2.05.5 2.7 2.7 0 0 1-2.95-2.77m6.86-2.66h3.19v1.05h-1.91v1.04h1.69v1h-1.69v1.19h1.97v1.07h-3.25v-5.35zm5.03 0h1.31v4.3h1.95v1.05h-3.26v-5.35zm4.73 0h3.2v1.05H64.3v1.04h1.69v1H64.3v1.19h1.97v1.07h-3.25v-5.35zm4.47 4.92l.53-.9a2 2 0 0 0 1.12.38c.51 0 .77-.22.77-.53s-.51-.5-1.18-.8a1.67 1.67 0 0 1-1.12-1.63 1.61 1.61 0 0 1 1.79-1.54 2.56 2.56 0 0 1 1.61.46l-.51.9a2.15 2.15 0 0 0-1-.32c-.4 0-.64.16-.64.48s.42.48 1 .74 1.32.67 1.32 1.64-.74 1.64-2 1.64a2.74 2.74 0 0 1-1.69-.52m7.35-2.26a2.65 2.65 0 0 1 2.81-2.76 2.85 2.85 0 0 1 1.64.43l-.57.94a2 2 0 0 0-1.09-.3c-.91 0-1.41.72-1.41 1.66s.47 1.73 1.43 1.73a1.81 1.81 0 0 0 1.18-.4l.53.91a2.85 2.85 0 0 1-1.73.57 2.63 2.63 0 0 1-2.79-2.78m5.42.02a2.67 2.67 0 0 1 2.8-2.78 2.77 2.77 0 1 1 0 5.54 2.68 2.68 0 0 1-2.83-2.76m4.23 0c0-.93-.4-1.75-1.4-1.75s-1.46.78-1.46 1.71.43 1.76 1.43 1.76 1.43-.8 1.43-1.72m2.66.57v-3.25h1.28v3.15c0 .84.28 1.24 1.07 1.24s1-.44 1-1.18v-3.21h1.18v3.12a2 2 0 0 1-2.24 2.32c-1.57 0-2.35-.75-2.35-2.19m6.27-3.25h1.31l1.76 2.48c.34.5.54.88.58.94s0-.45 0-.87v-2.55h1.17v5.35h-1.21l-1.91-2.71a8.72 8.72 0 0 1-.54-.83v3.54h-1.16zm7.65 1.05h-1.46v-1.05h4.22v1.05h-1.46v4.29h-1.3v-4.29zm5.45 2.28l-1.76-3.33h1.44l1.03 2.13h.01l1.03-2.13h1.26l-1.71 3.33v2.01h-1.3v-2.01zm-90.59-3.33h1.31v4.31h1.95v1.04h-3.26v-5.35z" fill="#fff"></path></svg>