<svg viewBox="0 0 22 20" xmlns="http://www.w3.org/2000/svg"><path d="M22 2.363a9.689 9.689 0 0 1-2.259 2.61c.016.248.024.467.024.66 0 .96-.092 1.927-.275 2.898-.184.97-.461 1.924-.83 2.863a17.123 17.123 0 0 1-1.338 2.693 12.74 12.74 0 0 1-1.865 2.363 13.128 13.128 0 0 1-2.358 1.867c-.851.527-1.805.939-2.86 1.236A12.194 12.194 0 0 1 6.911 20C4.407 20 2.104 19.244 0 17.733c.36.046.72.07 1.08.07.696 0 1.378-.087 2.044-.262a8.384 8.384 0 0 0 1.891-.742 9.09 9.09 0 0 0 1.664-1.153c-.975-.027-1.848-.366-2.622-1.017-.773-.65-1.303-1.484-1.59-2.5.304.065.586.096.848.096.4 0 .798-.06 1.19-.178-1.038-.23-1.903-.809-2.59-1.738-.687-.93-1.03-1.999-1.03-3.207v-.07a4.12 4.12 0 0 0 2.037.633 4.815 4.815 0 0 1-1.46-1.8A5.427 5.427 0 0 1 .92 3.461c0-.906.204-1.753.614-2.54A13.168 13.168 0 0 0 5.648 4.65a11.513 11.513 0 0 0 5.193 1.546 5.422 5.422 0 0 1-.124-1.155c0-.677.12-1.328.356-1.95a5.18 5.18 0 0 1 .964-1.614A4.54 4.54 0 0 1 13.48.399 4.037 4.037 0 0 1 15.236 0c.638 0 1.242.14 1.81.42.569.279 1.062.67 1.48 1.174a8.513 8.513 0 0 0 2.86-1.222 5.067 5.067 0 0 1-.76 1.6 4.73 4.73 0 0 1-1.217 1.188A8.167 8.167 0 0 0 22 2.363" fill="none" fill-rule="evenodd"></path></svg>